<?xml version="1.0" encoding="UTF-8"?>
<!-- Created with Inkscape (http://www.inkscape.org/) -->
<svg width="5in" height="3in" version="1.1" viewBox="0 0 360 216" xmlns="http://www.w3.org/2000/svg">
 <g fill="none">
  <rect x="36.074" y="36.074" width="288" height="144" stroke="#000" stroke-width=".14857"/>
  <path d="m174.88 81.239c-68.324-17.531-61.697 16.606-86.504 12.332-24.807-4.2744-47.47 53.613-21.613 62.659 25.857 9.0466 8.0377-49.751 61.094-31.984 53.056 17.767 92.46 50.794 113.89 43.78s64.904 4.2466 60.09-30.888c-4.8135-35.135 19.982-106.48-22.497-80.888-42.479 25.591-27.072 76.927-59.432 53.347-32.36-23.579-45.026-28.359-45.026-28.359z" stroke="#f00" stroke-width=".75px"/>
  <path d="m291.31 89.64c-3.7424-11.56-5.2234-8.325-25.921 14.963-20.698 23.288-47.226 27.468-77.795 13.469-30.569-14-89.66-26.652-100.25-11.628-10.586 15.024-24.299 46.4-15.244 36.784 9.0553-9.6166 17.916-31.879 33.387-30.824 15.471 1.0544 102.96 27.076 113.46 39.027 10.5 11.951 48.321 10.834 55.832-0.3066 7.5107-11.14 21.226-39.074 16.525-61.483z" stroke="#00f" stroke-width=".75px"/>
 </g>
</svg>
